<?xml version="1.0" encoding="UTF-8"?>
<svg xmlns="http://www.w3.org/2000/svg" fill="#rgb(237, 237, 237)" style="stroke:none;fill-rule:nonzero;fill-opacity:1;" xmlns:xlink="http://www.w3.org/1999/xlink" width="1000px" height="1000px" viewBox="0 0 1000 1000" version="1.1">
    <g id="surface1">
        <path
            d="M 465.210938 288.234375 C 448.460938 289.527344 437.132812 295.65625 429.273438 307.664062 C 425.902344 312.816406 423.65625 318.898438 422.4375 326.292969 C 421.800781 330.125 421.800781 340.941406 422.460938 344.96875 C 423.925781 354.296875 427.074219 361.621094 432.300781 367.921875 C 439.257812 376.292969 448.707031 381.175781 461.179688 382.859375 C 464.722656 383.324219 474.535156 383.25 478.148438 382.714844 C 485.765625 381.59375 492.089844 379.273438 497.804688 375.464844 C 501.125 373.265625 506.203125 368.140625 508.519531 364.648438 C 512.621094 358.445312 515.085938 351.488281 516.136719 343.140625 C 516.601562 339.453125 516.527344 331.738281 516.039062 328.367188 C 515.113281 322.21875 512.84375 314.550781 510.742188 310.398438 C 504.882812 298.902344 492.140625 290.601562 477.417969 288.695312 C 474.488281 288.328125 467.53125 288.0625 465.210938 288.234375 Z M 465.210938 288.234375 " />
        <path
            d="M 608.640625 363.257812 C 576.21875 388.769531 549.65625 409.765625 549.609375 409.914062 C 549.535156 410.082031 554.6875 410.15625 566.015625 410.15625 L 582.496094 410.15625 L 582.59375 476.855469 C 582.640625 527 582.738281 544.289062 582.960938 546.386719 C 584.546875 561.28125 586.402344 569.875 590.015625 578.980469 C 599.046875 601.832031 615.257812 613.429688 642.335938 616.359375 C 647.632812 616.945312 658.789062 616.945312 664.550781 616.359375 C 677.515625 615.0625 688.234375 612.085938 698.976562 606.789062 C 710.9375 600.878906 721.289062 592.820312 729.640625 582.886719 C 732.664062 579.296875 736.695312 573.511719 736.375 573.195312 C 736.28125 573.09375 735.472656 573.265625 734.59375 573.609375 C 731.152344 574.976562 726.34375 576.195312 721.558594 576.929688 C 717.503906 577.5625 708.9375 577.808594 705.054688 577.417969 C 697.558594 576.660156 691.382812 574.632812 686.375 571.289062 C 683.886719 569.628906 679.664062 565.355469 678.003906 562.867188 C 673.484375 556.007812 670.460938 545.824219 668.945312 532.46875 C 667.894531 523.046875 667.894531 522.949219 667.796875 465.503906 L 667.699219 410.15625 L 728.027344 410.15625 L 728.027344 403.320312 L 667.726562 403.320312 L 667.675781 360.082031 L 667.601562 316.84375 Z M 608.640625 363.257812 " />
        <path
            d="M 372.679688 378.515625 C 365.699219 382.152344 349.488281 390.601562 336.621094 397.289062 L 313.28125 409.449219 L 310.914062 408.082031 C 299.585938 401.539062 285.328125 397.3125 268.433594 395.507812 C 264.429688 395.070312 252.5625 394.921875 247.558594 395.238281 C 231.398438 396.289062 217.234375 399.828125 204.46875 405.980469 C 178.394531 418.578125 161.375 443.261719 158.9375 472.046875 C 158.421875 478.148438 158.742188 487.402344 159.667969 493.285156 C 162.671875 512.597656 172.289062 529.859375 186.765625 541.84375 C 188.039062 542.921875 189.136719 543.871094 189.160156 543.992188 C 189.210938 544.09375 188.109375 545.386719 186.71875 546.851562 C 178.953125 554.957031 171.726562 564.109375 166.871094 572.046875 C 160.203125 582.886719 156.46875 593.1875 154.882812 604.980469 C 154.371094 608.714844 154.296875 617.457031 154.761719 620.972656 C 156.175781 632.25 160.351562 642.503906 166.359375 649.414062 L 167.945312 651.246094 L 166.796875 651.734375 C 164.0625 652.882812 157.910156 656.101562 155.90625 657.421875 C 150.929688 660.765625 146.972656 664.601562 144.140625 668.847656 C 141.40625 672.972656 140.160156 676.734375 139.964844 681.542969 C 139.332031 696.777344 149.339844 707.910156 169.679688 714.550781 C 183.128906 718.945312 199.046875 721.167969 222.703125 721.949219 C 244.484375 722.65625 265.039062 721.019531 282.835938 717.140625 C 310.425781 711.132812 331.175781 701.195312 345.238281 687.257812 C 351.390625 681.152344 355.03125 676.171875 358.546875 669.066406 C 362.890625 660.203125 364.746094 652.125 364.746094 641.773438 C 364.746094 636.304688 364.5 633.546875 363.625 629.148438 C 361.792969 619.96875 357.691406 612.351562 351.464844 606.519531 C 342.039062 597.703125 326.757812 592.140625 306.761719 590.234375 C 304.613281 590.015625 302.320312 589.796875 301.636719 589.722656 C 300.976562 589.648438 284.984375 589.476562 266.113281 589.378906 C 236.523438 589.210938 231.421875 589.136719 229.003906 588.792969 C 220.484375 587.574219 213.695312 585.742188 208.984375 583.375 C 198.558594 578.101562 192.335938 567.457031 192.40625 554.980469 C 192.40625 551.855469 192.847656 547.558594 193.164062 547.242188 C 193.238281 547.144531 194.847656 548.023438 196.726562 549.144531 C 214.429688 559.8125 235.15625 564.941406 258.054688 564.378906 C 272.828125 564.015625 284.742188 561.742188 296.996094 556.957031 C 308.375 552.539062 317.820312 546.558594 325.855469 538.71875 C 332.59375 532.152344 336.792969 526.441406 340.820312 518.335938 C 344.75 510.425781 347.460938 501.367188 348.78125 491.699219 C 349.316406 487.671875 349.511719 476.320312 349.144531 471.507812 C 347.679688 453.613281 341.429688 437.476562 331.101562 424.953125 C 328.636719 421.972656 324.414062 417.820312 321.335938 415.332031 C 319.96875 414.234375 318.992188 413.328125 319.1875 413.328125 C 320.042969 413.328125 326.636719 415.1875 330.933594 416.625 C 338.746094 419.238281 345.191406 421.949219 356.492188 427.390625 C 365.796875 431.859375 380.152344 439.429688 384.351562 442.066406 C 384.863281 442.382812 385.375 442.578125 385.5 442.503906 C 385.789062 442.335938 385.839844 372.144531 385.570312 371.996094 C 385.449219 371.949219 379.664062 374.878906 372.679688 378.515625 Z M 228.171875 407.007812 C 237.523438 409.449219 246.679688 418.433594 260.15625 438.355469 C 268.507812 450.757812 278.515625 467.945312 285.863281 482.542969 C 294.53125 499.757812 299.585938 513.160156 301.804688 524.78125 C 302.269531 527.296875 302.367188 528.492188 302.367188 533.082031 C 302.34375 538.257812 302.320312 538.523438 301.683594 540.648438 C 300.734375 543.675781 299.535156 545.726562 297.507812 547.730469 C 294.457031 550.78125 291.164062 552.074219 286.5 552.101562 C 279.664062 552.101562 273.21875 548.609375 264.992188 540.40625 C 253.515625 528.980469 241.699219 510.914062 226.734375 481.933594 C 219.117188 467.164062 212.988281 452.78125 209.863281 442.308594 C 205.492188 427.710938 205.835938 418.75 210.9375 412.425781 C 213.011719 409.863281 216.554688 407.570312 219.605469 406.835938 C 221.65625 406.324219 225.929688 406.421875 228.171875 407.007812 Z M 173.339844 655.492188 C 180.8125 661.109375 191.554688 665.210938 203.734375 667.113281 C 212.84375 668.53125 212.453125 668.507812 249.511719 668.703125 C 271.363281 668.824219 284.886719 668.992188 286.742188 669.164062 C 298.046875 670.214844 304.6875 671.582031 309.523438 673.851562 C 315.722656 676.734375 318.210938 680.515625 317.40625 685.816406 C 316.820312 689.453125 315.257812 692.308594 312.011719 695.554688 C 304.445312 703.125 289.890625 708.742188 272.460938 710.839844 C 268.089844 711.351562 253.613281 711.570312 248.484375 711.207031 C 230.882812 709.886719 215.550781 705.371094 202.855469 697.753906 C 187.574219 688.574219 177.269531 675.390625 171.777344 658.007812 C 170.75 654.734375 170.484375 653.417969 170.851562 653.664062 C 170.996094 653.734375 172.117188 654.566406 173.339844 655.492188 Z M 173.339844 655.492188 " />
        <path
            d="M 458.445312 409.742188 C 428.539062 420.117188 404.078125 428.664062 404.125 428.734375 C 404.148438 428.832031 409.59375 433.546875 416.210938 439.234375 L 428.246094 449.585938 L 428.148438 550.660156 C 428.101562 625.511719 428.003906 652.6875 427.78125 655.394531 C 426.441406 672.507812 424.953125 680.542969 421.582031 689.085938 C 418.066406 697.949219 413.039062 704.34375 406.933594 707.738281 C 400.976562 711.011719 394.238281 712.523438 384.351562 712.816406 L 379.148438 712.964844 L 379.148438 717.480469 L 382.765625 718.335938 C 397.117188 721.753906 410.890625 722.804688 426.515625 721.65625 C 446.140625 720.238281 462.84375 715.085938 475.953125 706.445312 C 490.699219 696.726562 501.78125 682.078125 507.738281 664.476562 C 510.5 656.273438 512.132812 648.046875 513.207031 636.71875 C 513.453125 634.398438 513.523438 604.320312 513.597656 512.257812 C 513.671875 395.972656 513.671875 390.867188 513.257812 390.894531 C 513.011719 390.894531 488.355469 399.390625 458.445312 409.742188 Z M 458.445312 409.742188 " />
        <path
            d="M 791.992188 536.742188 C 782.054688 538.207031 773.902344 542.429688 768.015625 549.195312 C 761.425781 556.738281 758.300781 565.917969 758.300781 577.636719 C 758.300781 589.355469 761.425781 598.535156 768.015625 606.078125 C 772.972656 611.742188 780.25 616.039062 787.914062 617.796875 C 794.410156 619.289062 803.980469 619.289062 810.472656 617.796875 C 818.140625 616.039062 825.414062 611.742188 830.371094 606.078125 C 836.960938 598.535156 840.085938 589.355469 840.085938 577.636719 C 840.085938 565.917969 836.960938 556.738281 830.371094 549.195312 C 825.414062 543.53125 818.140625 539.234375 810.472656 537.476562 C 805.710938 536.375 796.800781 536.035156 791.992188 536.742188 Z M 791.992188 536.742188 " />
    </g>
</svg>